<svg xmlns="http://www.w3.org/2000/svg" viewBox="0 0 1200 630" width="1200" height="630">
  <defs>
    <linearGradient id="bg" x1="0" y1="0" x2="1" y2="1">
      <stop offset="0" stop-color="#1c3729"/>
      <stop offset="1" stop-color="#2c5a40"/>
    </linearGradient>
  </defs>
  <rect width="1200" height="630" fill="url(#bg)"/>
  <circle cx="1050" cy="120" r="230" fill="#e7bb60" opacity="0.10"/>
  <circle cx="120" cy="560" r="210" fill="#ffffff" opacity="0.05"/>

  <!-- logo mark -->
  <g transform="translate(90 86)">
    <circle cx="40" cy="40" r="40" fill="#f7f2e7"/>
    <g transform="scale(1.6667)">
      <path d="M10 31 C16 28 21 28 24 30.5 C27 28 32 28 38 31 L38 39 C32 36 27 36 24 38.5 C21 36 16 36 10 39 Z" fill="#244734"/>
      <path d="M24 30.5 V38.5" stroke="#82af89" stroke-width="1"/>
      <path d="M24 14 C22 10.5 16.5 11.5 16.5 15.5 C16.5 19 21 22 24 24 C27 22 31.5 19 31.5 15.5 C31.5 11.5 26 10.5 24 14 Z" fill="#e7bb60"/>
    </g>
  </g>
  <text x="195" y="122" font-family="Georgia, 'Times New Roman', serif" font-size="40" font-weight="700" fill="#f7f2e7">Thais Azevedo</text>
  <text x="196" y="160" font-family="Arial, sans-serif" font-size="21" letter-spacing="3" fill="#b1cfb5">NEUROPSICOPEDAGOGA</text>

  <text x="90" y="332" font-family="Georgia, 'Times New Roman', serif" font-size="68" font-weight="700" fill="#f7f2e7" font-style="italic">Ajudando crianças a</text>
  <text x="90" y="414" font-family="Georgia, 'Times New Roman', serif" font-size="68" font-weight="700" fill="#e7bb60" font-style="italic">aprender com confiança</text>

  <text x="92" y="500" font-family="Arial, sans-serif" font-size="29" fill="#d8e7da">Avaliação e intervenção neuropsicopedagógica · São Paulo, SP</text>

  <g transform="translate(92 540)">
    <rect width="300" height="58" rx="29" fill="#25d366"/>
    <text x="150" y="37" text-anchor="middle" font-family="Arial, sans-serif" font-size="24" font-weight="700" fill="#ffffff">Agende pelo WhatsApp</text>
  </g>
</svg>
