<svg xmlns="http://www.w3.org/2000/svg" viewBox="0 0 1200 630" width="1200" height="630">
  <defs>
    <linearGradient id="bg" x1="0" y1="0" x2="1" y2="1">
      <stop offset="0" stop-color="#1c3729"/>
      <stop offset="1" stop-color="#2c5a40"/>
    </linearGradient>
  </defs>
  <rect width="1200" height="630" fill="url(#bg)"/>
  <circle cx="1050" cy="120" r="230" fill="#e7bb60" opacity="0.10"/>
  <circle cx="120" cy="560" r="210" fill="#ffffff" opacity="0.05"/>

  <!-- logo mark -->
  <g transform="translate(90 86)">
    <circle cx="40" cy="40" r="40" fill="#f7f2e7"/>
    <path d="M24 52c0-12 7.2-18 16-18s16 6 16 18M40 34a8 8 0 100-16 8 8 0 000 16z" fill="none" stroke="#244734" stroke-width="4.4" stroke-linecap="round"/>
    <path d="M54 26c5 0 8 3.2 8 7.2S59 40 54 40" fill="none" stroke="#e7bb60" stroke-width="4.4" stroke-linecap="round"/>
  </g>
  <text x="195" y="122" font-family="Georgia, 'Times New Roman', serif" font-size="40" font-weight="700" fill="#f7f2e7">Thais Azevedo</text>
  <text x="196" y="160" font-family="Arial, sans-serif" font-size="21" letter-spacing="3" fill="#b1cfb5">NEUROPSICOPEDAGOGA</text>

  <text x="90" y="332" font-family="Georgia, 'Times New Roman', serif" font-size="68" font-weight="700" fill="#f7f2e7" font-style="italic">Ajudando crianças a</text>
  <text x="90" y="414" font-family="Georgia, 'Times New Roman', serif" font-size="68" font-weight="700" fill="#e7bb60" font-style="italic">aprender com confiança</text>

  <text x="92" y="500" font-family="Arial, sans-serif" font-size="29" fill="#d8e7da">Avaliação e intervenção neuropsicopedagógica · São Paulo, SP</text>

  <g transform="translate(92 540)">
    <rect width="300" height="58" rx="29" fill="#25d366"/>
    <text x="150" y="37" text-anchor="middle" font-family="Arial, sans-serif" font-size="24" font-weight="700" fill="#ffffff">Agende pelo WhatsApp</text>
  </g>
</svg>
